Gamer-400.ufo
<glyph name="H" format="1">
  <advance width="718"/>
  <unicode hex="0048"/>
  <outline>
    <contour>
      <point x="88" y="0" type="line"/>
      <point x="165" y="0" type="line"/>
      <point x="165" y="680" type="line"/>
      <point x="88" y="680" type="line"/>
    </contour>
    <contour>
      <point x="147" y="303" type="line"/>
      <point x="582" y="303" type="line"/>
      <point x="582" y="375" type="line"/>
      <point x="147" y="375" type="line"/>
    </contour>
    <contour>
      <point x="544" y="0" type="line"/>
      <point x="622" y="0" type="line"/>
      <point x="622" y="680" type="line"/>
      <point x="544" y="680" type="line"/>
    </contour>
  </outline>
</glyph>
<glyph name="a" format="1">
  <advance width="549"/>
  <unicode hex="0061"/>
  <outline>
    <contour>
      <point x="402" y="0" type="line"/>
      <point x="383" y="122" type="line"/>
      <point x="415" y="102" type="line"/>
      <point x="374" y="102" type="line"/>
      <point x="374" y="302" type="line" smooth="yes"/>
      <point x="374" y="349"/>
      <point x="368" y="373"/>
      <point x="349" y="392" type="curve" smooth="yes"/>
      <point x="329" y="412"/>
      <point x="292" y="423"/>
      <point x="239" y="423" type="curve" smooth="yes"/>
      <point x="181" y="423"/>
      <point x="125" y="415"/>
      <point x="77" y="401" type="curve"/>
      <point x="86" y="475" type="line"/>
      <point x="127" y="488"/>
      <point x="186" y="495"/>
      <point x="240" y="495" type="curve" smooth="yes"/>
      <point x="324" y="495"/>
      <point x="384" y="480"/>
      <point x="412" y="452" type="curve" smooth="yes"/>
      <point x="438" y="425"/>
      <point x="449" y="379"/>
      <point x="449" y="302" type="curve" smooth="yes"/>
      <point x="449" y="55" type="line"/>
      <point x="428" y="61" type="line"/>
      <point x="451" y="67"/>
      <point x="478" y="69"/>
      <point x="522" y="69" type="curve"/>
      <point x="522" y="0" type="line"/>
    </contour>
    <contour>
      <point x="217" y="-11" type="curve" smooth="yes" name="SP"/>
      <point x="156" y="-11"/>
      <point x="115" y="1"/>
      <point x="90" y="26" type="curve" smooth="yes"/>
      <point x="67" y="48"/>
      <point x="55" y="86"/>
      <point x="55" y="129" type="curve" smooth="yes"/>
      <point x="55" y="168"/>
      <point x="69" y="206"/>
      <point x="94" y="230" type="curve" smooth="yes"/>
      <point x="120" y="256"/>
      <point x="163" y="266"/>
      <point x="231" y="266" type="curve" smooth="yes" name="SP"/>
      <point x="287" y="266"/>
      <point x="320" y="259"/>
      <point x="341" y="242" type="curve" smooth="yes"/>
      <point x="360" y="226"/>
      <point x="371" y="203"/>
      <point x="376" y="170" type="curve"/>
      <point x="382" y="170" type="line"/>
      <point x="378" y="155" type="line"/>
      <point x="364" y="189"/>
      <point x="321" y="202"/>
      <point x="244" y="202" type="curve" smooth="yes" name="SP"/>
      <point x="158" y="202"/>
      <point x="129" y="182"/>
      <point x="129" y="129" type="curve" smooth="yes"/>
      <point x="129" y="75"/>
      <point x="161" y="56"/>
      <point x="240" y="56" type="curve" smooth="yes" name="SP"/>
      <point x="322" y="56"/>
      <point x="365" y="78"/>
      <point x="378" y="122" type="curve"/>
      <point x="381" y="112" type="line"/>
      <point x="377" y="65"/>
      <point x="368" y="40"/>
      <point x="350" y="23" type="curve" smooth="yes"/>
      <point x="329" y="2"/>
      <point x="286" y="-11"/>
    </contour>
  </outline>
</glyph>
<glyph name="b" format="1">
  <advance width="594"/>
  <unicode hex="0062"/>
  <outline>
    <contour>
      <point x="96" y="0" type="line"/>
      <point x="96" y="626" type="line"/>
      <point x="113" y="612" type="line"/>
      <point x="31" y="612" type="line"/>
      <point x="31" y="682" type="line"/>
      <point x="172" y="682" type="line"/>
      <point x="172" y="132" type="line"/>
      <point x="170" y="0" type="line"/>
    </contour>
    <contour>
      <point x="336" y="-11" type="curve" smooth="yes" name="SP"/>
      <point x="234" y="-11"/>
      <point x="178" y="36"/>
      <point x="169" y="137" type="curve"/>
      <point x="170" y="143" type="line"/>
      <point x="186" y="113"/>
      <point x="208" y="90"/>
      <point x="236" y="77" type="curve" smooth="yes"/>
      <point x="262" y="65"/>
      <point x="289" y="59"/>
      <point x="321" y="59" type="curve" smooth="yes" name="SP"/>
      <point x="364" y="59"/>
      <point x="399" y="72"/>
      <point x="423" y="96" type="curve" smooth="yes"/>
      <point x="450" y="123"/>
      <point x="464" y="172"/>
      <point x="464" y="242" type="curve" smooth="yes"/>
      <point x="464" y="312"/>
      <point x="450" y="360"/>
      <point x="423" y="387" type="curve" smooth="yes"/>
      <point x="399" y="412"/>
      <point x="364" y="424"/>
      <point x="321" y="424" type="curve" smooth="yes" name="SP"/>
      <point x="289" y="424"/>
      <point x="262" y="419"/>
      <point x="236" y="407" type="curve" smooth="yes"/>
      <point x="208" y="394"/>
      <point x="186" y="371"/>
      <point x="170" y="341" type="curve"/>
      <point x="169" y="347" type="line"/>
      <point x="178" y="448"/>
      <point x="234" y="495"/>
      <point x="336" y="495" type="curve" smooth="yes" name="SP"/>
      <point x="399" y="495"/>
      <point x="444" y="474"/>
      <point x="479" y="439" type="curve" smooth="yes"/>
      <point x="516" y="402"/>
      <point x="533" y="338"/>
      <point x="533" y="242" type="curve" smooth="yes"/>
      <point x="533" y="146"/>
      <point x="516" y="82"/>
      <point x="479" y="45" type="curve" smooth="yes"/>
      <point x="444" y="10"/>
      <point x="399" y="-11"/>
    </contour>
  </outline>
</glyph>
<glyph name="c" format="1">
  <advance width="526"/>
  <unicode hex="0063"/>
  <outline>
    <contour>
      <point x="370" y="331" type="line"/>
      <point x="370" y="443" type="line"/>
      <point x="449" y="463" type="line"/>
      <point x="449" y="331" type="line"/>
    </contour>
    <contour>
      <point x="301" y="-11" type="curve" smooth="yes" name=""/>
      <point x="221" y="-11"/>
      <point x="159" y="8"/>
      <point x="124" y="43" type="curve" smooth="yes" name=""/>
      <point x="88" y="80"/>
      <point x="68" y="150"/>
      <point x="68" y="236" type="curve" smooth="yes"/>
      <point x="68" y="324"/>
      <point x="89" y="398"/>
      <point x="127" y="435" type="curve" smooth="yes" name=""/>
      <point x="165" y="474"/>
      <point x="223" y="492"/>
      <point x="287" y="492" type="curve" smooth="yes" name=""/>
      <point x="338" y="492"/>
      <point x="397" y="480"/>
      <point x="449" y="463" type="curve"/>
      <point x="437" y="384" type="line"/>
      <point x="370" y="411"/>
      <point x="344" y="419"/>
      <point x="291" y="419" type="curve" smooth="yes"/>
      <point x="242" y="419"/>
      <point x="203" y="410"/>
      <point x="179" y="386" type="curve" smooth="yes" name=""/>
      <point x="155" y="362"/>
      <point x="143" y="320"/>
      <point x="143" y="236" type="curve" smooth="yes"/>
      <point x="143" y="169"/>
      <point x="153" y="122"/>
      <point x="177" y="98" type="curve" smooth="yes" name=""/>
      <point x="200" y="75"/>
      <point x="242" y="61"/>
      <point x="302" y="61" type="curve" smooth="yes" name=""/>
      <point x="355" y="61"/>
      <point x="400" y="72"/>
      <point x="453" y="97" type="curve"/>
      <point x="451" y="22" type="line"/>
      <point x="402" y="-1"/>
      <point x="356" y="-11"/>
    </contour>
  </outline>
</glyph>
<glyph name="d" format="1">
  <advance width="591"/>
  <unicode hex="0064"/>
  <outline>
    <contour>
      <point x="258" y="-11" type="curve" smooth="yes" name="SP"/>
      <point x="195" y="-11"/>
      <point x="150" y="10"/>
      <point x="115" y="45" type="curve" smooth="yes"/>
      <point x="77" y="82"/>
      <point x="60" y="145"/>
      <point x="60" y="242" type="curve" smooth="yes"/>
      <point x="60" y="338"/>
      <point x="77" y="402"/>
      <point x="115" y="439" type="curve" smooth="yes"/>
      <point x="150" y="474"/>
      <point x="195" y="495"/>
      <point x="258" y="495" type="curve" smooth="yes" name="SP"/>
      <point x="359" y="495"/>
      <point x="415" y="448"/>
      <point x="424" y="347" type="curve"/>
      <point x="424" y="341" type="line"/>
      <point x="408" y="371"/>
      <point x="386" y="394"/>
      <point x="358" y="407" type="curve" smooth="yes"/>
      <point x="331" y="419"/>
      <point x="304" y="424"/>
      <point x="273" y="424" type="curve" smooth="yes" name="SP"/>
      <point x="229" y="424"/>
      <point x="195" y="412"/>
      <point x="170" y="387" type="curve" smooth="yes"/>
      <point x="143" y="360"/>
      <point x="130" y="312"/>
      <point x="130" y="242" type="curve" smooth="yes"/>
      <point x="130" y="171"/>
      <point x="143" y="123"/>
      <point x="170" y="96" type="curve" smooth="yes"/>
      <point x="195" y="72"/>
      <point x="229" y="59"/>
      <point x="273" y="59" type="curve" smooth="yes" name="SP"/>
      <point x="304" y="59"/>
      <point x="331" y="65"/>
      <point x="358" y="77" type="curve" smooth="yes"/>
      <point x="386" y="90"/>
      <point x="408" y="113"/>
      <point x="424" y="143" type="curve"/>
      <point x="424" y="137" type="line"/>
      <point x="415" y="36"/>
      <point x="359" y="-11"/>
    </contour>
    <contour>
      <point x="423" y="0" type="line"/>
      <point x="422" y="132" type="line"/>
      <point x="422" y="626" type="line"/>
      <point x="438" y="612" type="line"/>
      <point x="347" y="612" type="line"/>
      <point x="347" y="682" type="line"/>
      <point x="497" y="682" type="line"/>
      <point x="497" y="0" type="line"/>
    </contour>
  </outline>
</glyph>
<glyph name="e" format="1">
  <advance width="551"/>
  <unicode hex="0065"/>
  <outline>
    <contour>
      <point x="301" y="-11" type="curve" smooth="yes" name=""/>
      <point x="226" y="-11"/>
      <point x="159" y="10"/>
      <point x="124" y="45" type="curve" smooth="yes" name=""/>
      <point x="88" y="81"/>
      <point x="68" y="153"/>
      <point x="68" y="239" type="curve" smooth="yes"/>
      <point x="68" y="327"/>
      <point x="91" y="402"/>
      <point x="129" y="439" type="curve" smooth="yes" name=""/>
      <point x="162" y="472"/>
      <point x="221" y="492"/>
      <point x="284" y="492" type="curve" smooth="yes" name=""/>
      <point x="354" y="492"/>
      <point x="409" y="473"/>
      <point x="437" y="438" type="curve" smooth="yes" name=""/>
      <point x="473" y="394"/>
      <point x="485" y="305"/>
      <point x="478" y="207" type="curve"/>
      <point x="105" y="207" type="line"/>
      <point x="105" y="271" type="line"/>
      <point x="426" y="271" type="line"/>
      <point x="408" y="241" type="line"/>
      <point x="410" y="321"/>
      <point x="401" y="356"/>
      <point x="381" y="383" type="curve" smooth="yes" name=""/>
      <point x="364" y="407"/>
      <point x="336" y="421"/>
      <point x="281" y="421" type="curve" smooth="yes" name=""/>
      <point x="235" y="421"/>
      <point x="203" y="412"/>
      <point x="179" y="388" type="curve" smooth="yes" name=""/>
      <point x="153" y="363"/>
      <point x="143" y="318"/>
      <point x="143" y="253" type="curve" smooth="yes"/>
      <point x="143" y="228" type="line" smooth="yes"/>
      <point x="143" y="162"/>
      <point x="153" y="124"/>
      <point x="175" y="101" type="curve" smooth="yes" name=""/>
      <point x="201" y="76"/>
      <point x="244" y="61"/>
      <point x="302" y="61" type="curve" smooth="yes" name=""/>
      <point x="362" y="61"/>
      <point x="416" y="71"/>
      <point x="466" y="87" type="curve"/>
      <point x="458" y="13" type="line"/>
      <point x="416" y="-2"/>
      <point x="360" y="-11"/>
    </contour>
  </outline>
</glyph>
<glyph name="f" format="1">
  <advance width="370"/>
  <unicode hex="0066"/>
  <outline>
    <contour>
      <point x="358" y="480" type="line"/>
      <point x="25" y="480" type="line"/>
      <point x="25" y="410" type="line"/>
      <point x="358" y="410" type="line"/>
    </contour>
    <contour>
      <point x="191" y="0" type="line"/>
      <point x="191" y="502" type="line" smooth="yes"/>
      <point x="191" y="549"/>
      <point x="199" y="574"/>
      <point x="218" y="593" type="curve" smooth="yes"/>
      <point x="236" y="611"/>
      <point x="266" y="620"/>
      <point x="310" y="620" type="curve" smooth="yes"/>
      <point x="333" y="620"/>
      <point x="357" y="618"/>
      <point x="379" y="614" type="curve"/>
      <point x="376" y="688" type="line"/>
      <point x="354" y="691"/>
      <point x="331" y="692"/>
      <point x="304" y="692" type="curve" smooth="yes"/>
      <point x="242" y="692"/>
      <point x="192" y="675"/>
      <point x="161" y="643" type="curve" smooth="yes"/>
      <point x="129" y="612"/>
      <point x="116" y="568"/>
      <point x="116" y="500" type="curve" smooth="yes"/>
      <point x="116" y="0" type="line"/>
    </contour>
  </outline>
</glyph>
<glyph name="g" format="1">
  <advance width="587"/>
  <unicode hex="0067"/>
  <outline>
    <contour>
      <point x="266" y="-213" type="curve" smooth="yes"/>
      <point x="212" y="-213"/>
      <point x="151" y="-204"/>
      <point x="98" y="-192" type="curve"/>
      <point x="95" y="-112" type="line"/>
      <point x="155" y="-131"/>
      <point x="215" y="-141"/>
      <point x="275" y="-141" type="curve" smooth="yes"/>
      <point x="339" y="-141"/>
      <point x="376" y="-132"/>
      <point x="397" y="-111" type="curve" smooth="yes"/>
      <point x="416" y="-92"/>
      <point x="424" y="-61"/>
      <point x="424" y="-3" type="curve" smooth="yes"/>
      <point x="424" y="349" type="line"/>
      <point x="425" y="480" type="line"/>
      <point x="499" y="480" type="line"/>
      <point x="499" y="-17" type="line" smooth="yes"/>
      <point x="499" y="-84"/>
      <point x="486" y="-125"/>
      <point x="454" y="-157" type="curve" smooth="yes"/>
      <point x="417" y="-194"/>
      <point x="353" y="-213"/>
    </contour>
    <contour>
      <point x="260" y="-11" type="curve" smooth="yes" name="SP"/>
      <point x="197" y="-11"/>
      <point x="152" y="9"/>
      <point x="117" y="44" type="curve" smooth="yes"/>
      <point x="79" y="82"/>
      <point x="62" y="145"/>
      <point x="62" y="242" type="curve" smooth="yes"/>
      <point x="62" y="338"/>
      <point x="79" y="402"/>
      <point x="117" y="439" type="curve" smooth="yes"/>
      <point x="152" y="474"/>
      <point x="197" y="495"/>
      <point x="260" y="495" type="curve" smooth="yes" name="SP"/>
      <point x="361" y="495"/>
      <point x="417" y="448"/>
      <point x="426" y="347" type="curve"/>
      <point x="426" y="341" type="line"/>
      <point x="410" y="371"/>
      <point x="388" y="394"/>
      <point x="360" y="407" type="curve" smooth="yes"/>
      <point x="333" y="419"/>
      <point x="306" y="424"/>
      <point x="275" y="424" type="curve" smooth="yes" name="SP"/>
      <point x="231" y="424"/>
      <point x="197" y="412"/>
      <point x="172" y="387" type="curve" smooth="yes"/>
      <point x="145" y="360"/>
      <point x="132" y="312"/>
      <point x="132" y="242" type="curve" smooth="yes"/>
      <point x="132" y="171"/>
      <point x="145" y="123"/>
      <point x="172" y="96" type="curve" smooth="yes"/>
      <point x="197" y="71"/>
      <point x="231" y="59"/>
      <point x="275" y="59" type="curve" smooth="yes" name="SP"/>
      <point x="306" y="59"/>
      <point x="333" y="65"/>
      <point x="360" y="77" type="curve" smooth="yes"/>
      <point x="388" y="90"/>
      <point x="410" y="112"/>
      <point x="426" y="143" type="curve"/>
      <point x="426" y="136" type="line"/>
      <point x="417" y="36"/>
      <point x="361" y="-11"/>
    </contour>
  </outline>
</glyph>
<glyph name="h" format="1">
  <advance width="602"/>
  <unicode hex="0068"/>
  <outline>
    <contour>
      <point x="96" y="0" type="line"/>
      <point x="172" y="0" type="line"/>
      <point x="172" y="682" type="line"/>
      <point x="21" y="682" type="line"/>
      <point x="21" y="612" type="line"/>
      <point x="113" y="612" type="line"/>
      <point x="96" y="626" type="line"/>
    </contour>
    <contour>
      <point x="506" y="0" type="line"/>
      <point x="506" y="307" type="line" smooth="yes"/>
      <point x="506" y="382"/>
      <point x="494" y="427"/>
      <point x="466" y="454" type="curve" smooth="yes"/>
      <point x="440" y="481"/>
      <point x="395" y="495"/>
      <point x="337" y="495" type="curve" smooth="yes" name="SP"/>
      <point x="234" y="495"/>
      <point x="178" y="446"/>
      <point x="169" y="348" type="curve"/>
      <point x="170" y="341" type="line"/>
      <point x="183" y="370"/>
      <point x="201" y="389"/>
      <point x="229" y="403" type="curve" smooth="yes"/>
      <point x="254" y="415"/>
      <point x="279" y="419"/>
      <point x="313" y="419" type="curve" smooth="yes" name="SP"/>
      <point x="359" y="419"/>
      <point x="386" y="411"/>
      <point x="404" y="393" type="curve" smooth="yes"/>
      <point x="422" y="375"/>
      <point x="430" y="348"/>
      <point x="430" y="307" type="curve" smooth="yes"/>
      <point x="430" y="0" type="line"/>
    </contour>
  </outline>
</glyph>
<glyph name="i" format="1">
  <advance width="308"/>
  <unicode hex="0069"/>
  <outline>
    <contour>
      <point x="204" y="0" type="line"/>
      <point x="204" y="480" type="line"/>
      <point x="57" y="480" type="line"/>
      <point x="57" y="410" type="line"/>
      <point x="145" y="410" type="line"/>
      <point x="129" y="424" type="line"/>
      <point x="129" y="0" type="line"/>
    </contour>
    <contour>
      <point x="103" y="643" type="curve" smooth="yes"/>
      <point x="103" y="604"/>
      <point x="118" y="589"/>
      <point x="158" y="589" type="curve" smooth="yes" name=""/>
      <point x="198" y="589"/>
      <point x="213" y="604"/>
      <point x="213" y="643" type="curve" smooth="yes"/>
      <point x="213" y="681"/>
      <point x="198" y="697"/>
      <point x="158" y="697" type="curve" smooth="yes" name=""/>
      <point x="118" y="697"/>
      <point x="103" y="681"/>
    </contour>
  </outline>
</glyph>
<glyph name="m" format="1">
  <advance width="973"/>
  <unicode hex="006D"/>
  <outline>
    <contour>
      <point x="210" y="0" type="line"/>
      <point x="210" y="349" type="line"/>
      <point x="209" y="352" type="line"/>
      <point x="209" y="484" type="line"/>
      <point x="60" y="484" type="line"/>
      <point x="60" y="414" type="line"/>
      <point x="151" y="414" type="line"/>
      <point x="135" y="418" type="line"/>
      <point x="135" y="0" type="line"/>
    </contour>
    <contour>
      <point x="544" y="0" type="line"/>
      <point x="544" y="349" type="line"/>
      <point x="522" y="349" type="line"/>
      <point x="544" y="326" type="line"/>
      <point x="539" y="397"/>
      <point x="528" y="432"/>
      <point x="506" y="453" type="curve" smooth="yes"/>
      <point x="479" y="481"/>
      <point x="435" y="495"/>
      <point x="376" y="495" type="curve" smooth="yes" name="SP"/>
      <point x="273" y="495"/>
      <point x="216" y="446"/>
      <point x="208" y="348" type="curve"/>
      <point x="208" y="341" type="line"/>
      <point x="222" y="370"/>
      <point x="240" y="389"/>
      <point x="268" y="403" type="curve" smooth="yes"/>
      <point x="293" y="414"/>
      <point x="318" y="419"/>
      <point x="352" y="419" type="curve" smooth="yes" name="SP"/>
      <point x="397" y="419"/>
      <point x="424" y="411"/>
      <point x="443" y="393" type="curve" smooth="yes"/>
      <point x="461" y="375"/>
      <point x="469" y="348"/>
      <point x="469" y="307" type="curve" smooth="yes"/>
      <point x="469" y="0" type="line"/>
    </contour>
    <contour>
      <point x="878" y="0" type="line"/>
      <point x="878" y="307" type="line" smooth="yes"/>
      <point x="878" y="383"/>
      <point x="867" y="426"/>
      <point x="838" y="454" type="curve" smooth="yes"/>
      <point x="812" y="481"/>
      <point x="768" y="495"/>
      <point x="710" y="495" type="curve" smooth="yes" name="SP"/>
      <point x="607" y="495"/>
      <point x="549" y="446"/>
      <point x="541" y="348" type="curve"/>
      <point x="542" y="341" type="line"/>
      <point x="556" y="370"/>
      <point x="574" y="389"/>
      <point x="602" y="403" type="curve" smooth="yes"/>
      <point x="627" y="414"/>
      <point x="652" y="419"/>
      <point x="686" y="419" type="curve" smooth="yes" name="SP"/>
      <point x="731" y="419"/>
      <point x="758" y="411"/>
      <point x="777" y="393" type="curve" smooth="yes"/>
      <point x="795" y="375"/>
      <point x="803" y="348"/>
      <point x="803" y="307" type="curve" smooth="yes"/>
      <point x="803" y="0" type="line"/>
    </contour>
  </outline>
</glyph>
<glyph name="n" format="1">
  <advance width="639"/>
  <unicode hex="006E"/>
  <outline>
    <contour>
      <point x="207" y="0" type="line"/>
      <point x="132" y="0" type="line"/>
      <point x="132" y="418" type="line"/>
      <point x="148" y="414" type="line"/>
      <point x="56" y="414" type="line"/>
      <point x="56" y="484" type="line"/>
      <point x="206" y="484" type="line"/>
      <point x="206" y="352" type="line"/>
      <point x="207" y="349" type="line"/>
    </contour>
    <contour>
      <point x="541" y="0" type="line"/>
      <point x="466" y="0" type="line"/>
      <point x="466" y="307" type="line" smooth="yes"/>
      <point x="466" y="348"/>
      <point x="458" y="375"/>
      <point x="439" y="393" type="curve" smooth="yes"/>
      <point x="421" y="411"/>
      <point x="394" y="419"/>
      <point x="348" y="419" type="curve" smooth="yes" name="SP"/>
      <point x="315" y="419"/>
      <point x="289" y="415"/>
      <point x="265" y="403" type="curve" smooth="yes"/>
      <point x="237" y="389"/>
      <point x="219" y="370"/>
      <point x="205" y="341" type="curve"/>
      <point x="205" y="348" type="line"/>
      <point x="213" y="446"/>
      <point x="270" y="495"/>
      <point x="373" y="495" type="curve" smooth="yes" name="SP"/>
      <point x="431" y="495"/>
      <point x="475" y="481"/>
      <point x="502" y="454" type="curve" smooth="yes"/>
      <point x="529" y="427"/>
      <point x="541" y="382"/>
      <point x="541" y="307" type="curve" smooth="yes"/>
    </contour>
  </outline>
</glyph>
<glyph name="o" format="1">
  <advance width="584"/>
  <unicode hex="006F"/>
  <outline>
    <contour>
      <point x="292" y="60" type="curve" smooth="yes" name=""/>
      <point x="340" y="60"/>
      <point x="376" y="71"/>
      <point x="401" y="97" type="curve" smooth="yes"/>
      <point x="429" y="124"/>
      <point x="442" y="172"/>
      <point x="442" y="240" type="curve" smooth="yes"/>
      <point x="442" y="308"/>
      <point x="429" y="355"/>
      <point x="401" y="383" type="curve" smooth="yes"/>
      <point x="376" y="408"/>
      <point x="340" y="420"/>
      <point x="292" y="420" type="curve" smooth="yes" name=""/>
      <point x="244" y="420"/>
      <point x="208" y="408"/>
      <point x="183" y="383" type="curve" smooth="yes"/>
      <point x="155" y="355"/>
      <point x="142" y="308"/>
      <point x="142" y="240" type="curve" smooth="yes"/>
      <point x="142" y="172"/>
      <point x="155" y="124"/>
      <point x="183" y="97" type="curve" smooth="yes"/>
      <point x="208" y="71"/>
      <point x="244" y="60"/>
    </contour>
    <contour>
      <point x="292" y="-11" type="curve" smooth="yes" name=""/>
      <point x="227" y="-11"/>
      <point x="175" y="8"/>
      <point x="137" y="46" type="curve" smooth="yes"/>
      <point x="95" y="88"/>
      <point x="72" y="155"/>
      <point x="72" y="240" type="curve" smooth="yes"/>
      <point x="72" y="326"/>
      <point x="95" y="392"/>
      <point x="137" y="434" type="curve" smooth="yes"/>
      <point x="175" y="472"/>
      <point x="227" y="492"/>
      <point x="292" y="492" type="curve" smooth="yes" name=""/>
      <point x="357" y="492"/>
      <point x="409" y="472"/>
      <point x="447" y="434" type="curve" smooth="yes"/>
      <point x="489" y="392"/>
      <point x="512" y="326"/>
      <point x="512" y="240" type="curve" smooth="yes"/>
      <point x="512" y="155"/>
      <point x="489" y="88"/>
      <point x="447" y="46" type="curve" smooth="yes"/>
      <point x="409" y="8"/>
      <point x="357" y="-11"/>
    </contour>
  </outline>
</glyph>
<glyph name="p" format="1">
  <advance width="591"/>
  <unicode hex="0070"/>
  <outline>
    <contour>
      <point x="94" y="-207" type="line"/>
      <point x="169" y="-207" type="line"/>
      <point x="169" y="362" type="line"/>
      <point x="168" y="484" type="line"/>
      <point x="94" y="484" type="line"/>
    </contour>
    <contour>
      <point x="333" y="-11" type="curve" smooth="yes" name="SP"/>
      <point x="396" y="-11"/>
      <point x="441" y="10"/>
      <point x="476" y="45" type="curve" smooth="yes"/>
      <point x="514" y="82"/>
      <point x="531" y="146"/>
      <point x="531" y="242" type="curve" smooth="yes"/>
      <point x="531" y="338"/>
      <point x="514" y="402"/>
      <point x="476" y="439" type="curve" smooth="yes"/>
      <point x="441" y="474"/>
      <point x="396" y="495"/>
      <point x="333" y="495" type="curve" smooth="yes" name="SP"/>
      <point x="232" y="495"/>
      <point x="176" y="448"/>
      <point x="167" y="347" type="curve"/>
      <point x="167" y="341" type="line"/>
      <point x="183" y="371"/>
      <point x="205" y="394"/>
      <point x="233" y="407" type="curve" smooth="yes"/>
      <point x="260" y="419"/>
      <point x="287" y="424"/>
      <point x="318" y="424" type="curve" smooth="yes" name="SP"/>
      <point x="362" y="424"/>
      <point x="396" y="412"/>
      <point x="421" y="387" type="curve" smooth="yes"/>
      <point x="448" y="360"/>
      <point x="461" y="312"/>
      <point x="461" y="242" type="curve" smooth="yes"/>
      <point x="461" y="172"/>
      <point x="448" y="123"/>
      <point x="421" y="96" type="curve" smooth="yes"/>
      <point x="396" y="72"/>
      <point x="362" y="59"/>
      <point x="318" y="59" type="curve" smooth="yes" name="SP"/>
      <point x="287" y="59"/>
      <point x="260" y="65"/>
      <point x="233" y="77" type="curve" smooth="yes"/>
      <point x="205" y="90"/>
      <point x="183" y="113"/>
      <point x="167" y="143" type="curve"/>
      <point x="167" y="137" type="line"/>
      <point x="176" y="36"/>
      <point x="232" y="-11"/>
    </contour>
  </outline>
</glyph>
<glyph name="q" format="1">
  <advance width="593"/>
  <unicode hex="0071"/>
  <outline>
    <contour>
      <point x="424" y="-207" type="line"/>
      <point x="424" y="352" type="line"/>
      <point x="425" y="484" type="line"/>
      <point x="499" y="484" type="line"/>
      <point x="499" y="-207" type="line"/>
    </contour>
    <contour>
      <point x="260" y="-11" type="curve" smooth="yes" name="SP"/>
      <point x="197" y="-11"/>
      <point x="152" y="10"/>
      <point x="117" y="45" type="curve" smooth="yes"/>
      <point x="79" y="82"/>
      <point x="62" y="145"/>
      <point x="62" y="242" type="curve" smooth="yes"/>
      <point x="62" y="338"/>
      <point x="79" y="402"/>
      <point x="117" y="439" type="curve" smooth="yes"/>
      <point x="152" y="474"/>
      <point x="197" y="495"/>
      <point x="260" y="495" type="curve" smooth="yes" name="SP"/>
      <point x="361" y="495"/>
      <point x="417" y="448"/>
      <point x="426" y="347" type="curve"/>
      <point x="426" y="341" type="line"/>
      <point x="410" y="371"/>
      <point x="388" y="394"/>
      <point x="360" y="407" type="curve" smooth="yes"/>
      <point x="333" y="419"/>
      <point x="306" y="424"/>
      <point x="275" y="424" type="curve" smooth="yes" name="SP"/>
      <point x="231" y="424"/>
      <point x="197" y="412"/>
      <point x="172" y="387" type="curve" smooth="yes"/>
      <point x="145" y="360"/>
      <point x="132" y="312"/>
      <point x="132" y="242" type="curve" smooth="yes"/>
      <point x="132" y="171"/>
      <point x="145" y="123"/>
      <point x="172" y="96" type="curve" smooth="yes"/>
      <point x="197" y="72"/>
      <point x="231" y="59"/>
      <point x="275" y="59" type="curve" smooth="yes" name="SP"/>
      <point x="306" y="59"/>
      <point x="333" y="65"/>
      <point x="360" y="77" type="curve" smooth="yes"/>
      <point x="388" y="90"/>
      <point x="410" y="113"/>
      <point x="426" y="143" type="curve"/>
      <point x="426" y="137" type="line"/>
      <point x="417" y="36"/>
      <point x="361" y="-11"/>
    </contour>
  </outline>
</glyph>
<glyph name="r" format="1">
  <advance width="393"/>
  <unicode hex="0072"/>
  <outline>
    <contour>
      <point x="377" y="410" type="line" name="SP"/>
      <point x="337" y="410"/>
      <point x="304" y="406"/>
      <point x="278" y="397" type="curve" smooth="yes"/>
      <point x="242" y="385"/>
      <point x="215" y="362"/>
      <point x="190" y="323" type="curve"/>
      <point x="189" y="329" type="line"/>
      <point x="210" y="445"/>
      <point x="267" y="492"/>
      <point x="380" y="492" type="curve" name="SP"/>
    </contour>
    <contour>
      <point x="117" y="0" type="line"/>
      <point x="117" y="415" type="line"/>
      <point x="133" y="410" type="line"/>
      <point x="41" y="410" type="line"/>
      <point x="41" y="480" type="line"/>
      <point x="190" y="480" type="line"/>
      <point x="191" y="330" type="line"/>
      <point x="192" y="328" type="line"/>
      <point x="192" y="0" type="line"/>
    </contour>
  </outline>
</glyph>
<glyph name="s" format="1">
  <advance width="501"/>
  <unicode hex="0073"/>
  <outline>
    <contour>
      <point x="234" y="-11" type="curve" smooth="yes"/>
      <point x="367" y="-11"/>
      <point x="437" y="40"/>
      <point x="437" y="135" type="curve" smooth="yes"/>
      <point x="437" y="199"/>
      <point x="393" y="236"/>
      <point x="288" y="259" type="curve" smooth="yes"/>
      <point x="229" y="273" type="line" smooth="yes"/>
      <point x="164" y="288"/>
      <point x="139" y="310"/>
      <point x="139" y="352" type="curve" smooth="yes"/>
      <point x="139" y="377"/>
      <point x="144" y="394"/>
      <point x="159" y="405" type="curve" smooth="yes"/>
      <point x="175" y="419"/>
      <point x="206" y="424"/>
      <point x="252" y="424" type="curve" smooth="yes"/>
      <point x="306" y="424"/>
      <point x="341" y="416"/>
      <point x="411" y="387" type="curve"/>
      <point x="422" y="463" type="line"/>
      <point x="369" y="481"/>
      <point x="304" y="492"/>
      <point x="248" y="492" type="curve" smooth="yes"/>
      <point x="123" y="492"/>
      <point x="66" y="446"/>
      <point x="66" y="351" type="curve" smooth="yes"/>
      <point x="66" y="278"/>
      <point x="106" y="239"/>
      <point x="209" y="215" type="curve" smooth="yes"/>
      <point x="267" y="202" type="line" smooth="yes"/>
      <point x="342" y="185"/>
      <point x="363" y="167"/>
      <point x="363" y="131" type="curve" smooth="yes"/>
      <point x="363" y="83"/>
      <point x="324" y="59"/>
      <point x="235" y="59" type="curve" smooth="yes"/>
      <point x="169" y="59"/>
      <point x="113" y="70"/>
      <point x="68" y="93" type="curve"/>
      <point x="63" y="16" type="line"/>
      <point x="119" y="-2"/>
      <point x="173" y="-11"/>
    </contour>
    <contour>
      <point x="343" y="331" type="line"/>
      <point x="422" y="331" type="line"/>
      <point x="422" y="463" type="line"/>
      <point x="343" y="461" type="line"/>
    </contour>
  </outline>
</glyph>
<glyph name="t" format="1">
  <advance width="419"/>
  <unicode hex="0074"/>
  <outline>
    <contour>
      <point x="298" y="-11" type="curve" smooth="yes"/>
      <point x="242" y="-11"/>
      <point x="196" y="5"/>
      <point x="165" y="36" type="curve" smooth="yes"/>
      <point x="135" y="66"/>
      <point x="122" y="109"/>
      <point x="122" y="174" type="curve" smooth="yes"/>
      <point x="120" y="565" type="line"/>
      <point x="195" y="585" type="line"/>
      <point x="197" y="174" type="line" smooth="yes"/>
      <point x="197" y="127"/>
      <point x="204" y="104"/>
      <point x="221" y="86" type="curve" smooth="yes"/>
      <point x="237" y="70"/>
      <point x="263" y="62"/>
      <point x="299" y="62" type="curve" smooth="yes"/>
      <point x="322" y="62"/>
      <point x="343" y="65"/>
      <point x="379" y="73" type="curve"/>
      <point x="378" y="-2" type="line"/>
      <point x="351" y="-8"/>
      <point x="325" y="-11"/>
    </contour>
    <contour>
      <point x="33" y="410" type="line"/>
      <point x="33" y="480" type="line"/>
      <point x="353" y="480" type="line"/>
      <point x="353" y="410" type="line"/>
    </contour>
  </outline>
</glyph>
<glyph name="u" format="1">
  <advance width="639"/>
  <unicode hex="0075"/>
  <outline>
    <contour>
      <point x="432" y="484" type="line"/>
      <point x="432" y="135" type="line"/>
      <point x="433" y="132" type="line"/>
      <point x="433" y="0" type="line"/>
      <point x="583" y="0" type="line"/>
      <point x="583" y="70" type="line"/>
      <point x="491" y="70" type="line"/>
      <point x="507" y="65" type="line"/>
      <point x="507" y="484" type="line"/>
    </contour>
    <contour>
      <point x="98" y="484" type="line"/>
      <point x="98" y="177" type="line" smooth="yes"/>
      <point x="98" y="103"/>
      <point x="109" y="59"/>
      <point x="135" y="32" type="curve" smooth="yes"/>
      <point x="162" y="3"/>
      <point x="207" y="-11"/>
      <point x="266" y="-11" type="curve" smooth="yes" name="SP"/>
      <point x="369" y="-11"/>
      <point x="426" y="38"/>
      <point x="434" y="136" type="curve"/>
      <point x="434" y="142" type="line"/>
      <point x="420" y="114"/>
      <point x="402" y="95"/>
      <point x="374" y="81" type="curve" smooth="yes"/>
      <point x="349" y="69"/>
      <point x="324" y="65"/>
      <point x="291" y="65" type="curve" smooth="yes" name="SP"/>
      <point x="245" y="65"/>
      <point x="218" y="72"/>
      <point x="200" y="91" type="curve" smooth="yes"/>
      <point x="181" y="109"/>
      <point x="173" y="136"/>
      <point x="173" y="176" type="curve" smooth="yes"/>
      <point x="173" y="484" type="line"/>
    </contour>
  </outline>
</glyph>
<glyph name="v" format="1">
  <advance width="513"/>
  <unicode hex="0076"/>
  <outline>
    <contour>
      <point x="203" y="0" type="line"/>
      <point x="277" y="0" type="line"/>
      <point x="215" y="164" type="line"/>
      <point x="93" y="484" type="line"/>
      <point x="16" y="484" type="line"/>
    </contour>
    <contour>
      <point x="311" y="0" type="line"/>
      <point x="498" y="484" type="line"/>
      <point x="423" y="484" type="line"/>
      <point x="301" y="164" type="line"/>
      <point x="239" y="0" type="line"/>
    </contour>
  </outline>
</glyph>
<glyph name="a.001" format="1">
  <advance width="586"/>
  <outline>
    <contour>
      <point x="258" y="-11" type="curve" smooth="yes" name="SP"/>
      <point x="201" y="-11"/>
      <point x="155" y="8"/>
      <point x="120" y="43" type="curve" smooth="yes"/>
      <point x="83" y="80"/>
      <point x="64" y="145"/>
      <point x="64" y="242" type="curve" smooth="yes"/>
      <point x="64" y="340"/>
      <point x="83" y="403"/>
      <point x="120" y="440" type="curve" smooth="yes"/>
      <point x="156" y="476"/>
      <point x="201" y="496"/>
      <point x="258" y="496" type="curve" smooth="yes" name="SP"/>
      <point x="366" y="496"/>
      <point x="422" y="448"/>
      <point x="431" y="348" type="curve"/>
      <point x="431" y="342" type="line"/>
      <point x="416" y="372"/>
      <point x="395" y="391"/>
      <point x="366" y="405" type="curve" smooth="yes"/>
      <point x="343" y="415"/>
      <point x="315" y="420"/>
      <point x="283" y="420" type="curve" smooth="yes" name="SP"/>
      <point x="237" y="420"/>
      <point x="204" y="411"/>
      <point x="180" y="386" type="curve" smooth="yes"/>
      <point x="152" y="358"/>
      <point x="139" y="313"/>
      <point x="139" y="242" type="curve" smooth="yes"/>
      <point x="139" y="172"/>
      <point x="152" y="125"/>
      <point x="179" y="98" type="curve" smooth="yes"/>
      <point x="204" y="73"/>
      <point x="237" y="63"/>
      <point x="283" y="63" type="curve" smooth="yes" name="SP"/>
      <point x="315" y="63"/>
      <point x="343" y="68"/>
      <point x="366" y="79" type="curve" smooth="yes"/>
      <point x="395" y="92"/>
      <point x="416" y="113"/>
      <point x="431" y="143" type="curve"/>
      <point x="431" y="136" type="line"/>
      <point x="422" y="37"/>
      <point x="366" y="-11"/>
    </contour>
    <contour>
      <point x="505" y="0" type="line"/>
      <point x="430" y="0" type="line"/>
      <point x="429" y="132" type="line"/>
      <point x="429" y="358" type="line"/>
      <point x="430" y="480" type="line"/>
      <point x="505" y="480" type="line"/>
    </contour>
  </outline>
</glyph>
